<svg width="114" height="112" viewBox="0 0 114 112" fill="none" xmlns="http://www.w3.org/2000/svg">
<path d="M80.2694 111H96.5895C100.918 111 105.069 109.31 108.13 106.301C111.19 103.293 112.91 99.2128 112.91 94.9583V78.9167" stroke="white" stroke-width="2" stroke-linecap="round" stroke-linejoin="round"/>
<path d="M112.91 33.0833V17.0417C112.91 12.7872 111.19 8.70689 108.13 5.6985C105.069 2.6901 100.918 1 96.5895 1H80.2694" stroke="white" stroke-width="2" stroke-linecap="round" stroke-linejoin="round"/>
<path d="M33.6403 111H17.3202C12.9918 111 8.84069 109.31 5.78007 106.301C2.71944 103.293 1 99.2128 1 94.9583V78.9167" stroke="white" stroke-width="2" stroke-linecap="round" stroke-linejoin="round"/>
<path d="M1 33.0833V17.0417C1 12.7872 2.71944 8.70689 5.78007 5.6985C8.84069 2.6901 12.9918 1 17.3202 1H33.6403" stroke="white" stroke-width="2" stroke-linecap="round" stroke-linejoin="round"/>
</svg>
