<svg width="188" height="184" viewBox="0 0 188 184" fill="none" xmlns="http://www.w3.org/2000/svg">
<path d="M94 68L94 114" stroke="white" stroke-linecap="round"/>
<path d="M71 91H117" stroke="white" stroke-linecap="round"/>
<rect x="1" y="1" width="185" height="182" rx="27" fill="white" fill-opacity="0.3"/>
<path d="M132.155 183H159.157C166.319 183 173.187 180.204 178.251 175.226C183.315 170.249 186.16 163.498 186.16 156.458V129.917" stroke="white" stroke-width="2" stroke-linecap="round" stroke-linejoin="round"/>
<path d="M186.16 54.0833V27.5417C186.16 20.5024 183.315 13.7514 178.251 8.77388C173.187 3.79635 166.319 1 159.157 1H132.155" stroke="white" stroke-width="2" stroke-linecap="round" stroke-linejoin="round"/>
<path d="M55.0049 183H28.0025C20.841 183 13.9728 180.204 8.90884 175.226C3.8449 170.249 1 163.498 1 156.458V129.917" stroke="white" stroke-width="2" stroke-linecap="round" stroke-linejoin="round"/>
<path d="M1 54.0833V27.5417C1 20.5024 3.8449 13.7514 8.90884 8.77388C13.9728 3.79635 20.841 1 28.0025 1H55.0049" stroke="white" stroke-width="2" stroke-linecap="round" stroke-linejoin="round"/>
</svg>
