<svg width="204" height="42" viewBox="0 0 204 42" fill="none" xmlns="http://www.w3.org/2000/svg">
<path fill-rule="evenodd" clip-rule="evenodd" d="M185.878 0H18.1218H16.5685V0.0760643C7.28725 0.989085 0 10.0084 0 21C0 31.9916 7.28725 41.0109 16.5685 41.9239V42H18.1218H185.878H186.396V41.9916C196.165 41.674 204 32.3973 204 21C204 9.60269 196.165 0.326004 186.396 0.00840638V0H185.878Z" fill="#EB5E40"/>
<path fill-rule="evenodd" clip-rule="evenodd" d="M182.5 3H20.5H19V3.0652C10.0372 3.84778 3 11.5786 3 21C3 30.4214 10.0372 38.1522 19 38.9348V39H20.5H182.5H183V38.9928C192.434 38.7206 200 30.7691 200 21C200 11.2309 192.434 3.27944 183 3.00721V3H182.5Z" fill="#FFF100"/>
<path fill-rule="evenodd" clip-rule="evenodd" d="M178.299 6H23.7005H22.269V6.05328C13.7157 6.69286 7 13.0109 7 20.7107C7 28.4104 13.7157 34.7285 22.269 35.368V35.4213H23.7005H178.299H178.777V35.4154C187.779 35.193 195 28.6946 195 20.7107C195 12.7268 187.779 6.22836 178.777 6.00589V6H178.299Z" fill="#EB5E40"/>
<path d="M56.656 29.288C55.76 29.288 54.808 29.168 53.8 28.928C52.792 28.688 51.84 28.36 50.944 27.944V24.872C53.024 25.992 54.88 26.552 56.512 26.552C57.328 26.552 57.984 26.376 58.48 26.024C58.992 25.672 59.248 25.176 59.248 24.536C59.248 24.088 59.104 23.712 58.816 23.408C58.544 23.088 58.2 22.832 57.784 22.64C57.368 22.432 56.776 22.184 56.008 21.896C54.968 21.512 54.12 21.144 53.464 20.792C52.808 20.44 52.248 19.944 51.784 19.304C51.32 18.648 51.088 17.808 51.088 16.784C51.088 15.28 51.608 14.112 52.648 13.28C53.688 12.432 55.112 12.008 56.92 12.008C57.768 12.008 58.6 12.104 59.416 12.296C60.232 12.472 60.984 12.736 61.672 13.088V16.088C60.056 15.192 58.496 14.744 56.992 14.744C56.16 14.744 55.504 14.896 55.024 15.2C54.56 15.488 54.328 15.904 54.328 16.448C54.328 16.992 54.568 17.424 55.048 17.744C55.544 18.048 56.304 18.384 57.328 18.752C58.4 19.152 59.28 19.536 59.968 19.904C60.656 20.272 61.248 20.808 61.744 21.512C62.256 22.2 62.528 23.096 62.56 24.2C62.56 25.784 62.024 27.032 60.952 27.944C59.88 28.84 58.448 29.288 56.656 29.288ZM77.0476 15.2H72.2956V12.296H84.9676V15.2H80.2156V29H77.0476V15.2ZM104.326 25.208H97.1982L95.8062 29H92.6382L98.9742 12.296H102.67L109.006 29H105.718L104.326 25.208ZM103.342 22.52L100.774 15.416L98.1822 22.52H103.342ZM128.332 29L124.924 22.64H121.948V29H118.78V12.296H124.804C126.964 12.296 128.58 12.728 129.652 13.592C130.724 14.456 131.26 15.712 131.26 17.36C131.26 18.528 130.996 19.52 130.468 20.336C129.94 21.152 129.156 21.76 128.116 22.16L131.812 29H128.332ZM121.948 19.856H124.828C125.884 19.856 126.66 19.672 127.156 19.304C127.668 18.936 127.924 18.312 127.924 17.432C127.924 16.584 127.676 15.984 127.18 15.632C126.684 15.28 125.892 15.104 124.804 15.104H121.948V19.856ZM145.34 15.2H140.588V12.296H153.26V15.2H148.508V29H145.34V15.2Z" fill="white"/>
</svg>
