<svg width="73" height="28" viewBox="0 0 73 28" fill="none" xmlns="http://www.w3.org/2000/svg">
<path fill-rule="evenodd" clip-rule="evenodd" d="M60.404 0H11.8182H10.5051V0.0721252C4.59604 0.725321 0 5.73502 0 11.8182C0 17.9013 4.59604 22.911 10.5051 23.5642V23.6364H11.8182H60.404H61.7172V23.5642C67.6262 22.911 72.2222 17.9013 72.2222 11.8182C72.2222 5.73505 67.6262 0.725374 61.7172 0.0721357V0H60.404Z" fill="#EB5E40"/>
<path fill-rule="evenodd" clip-rule="evenodd" d="M59.4991 1.18182H60.7669V1.24674C66.4718 1.83464 70.909 6.34336 70.909 11.8182C70.909 17.293 66.4718 21.8017 60.7669 22.3896V22.4546H59.4991H12.6036L12.5917 22.4546L12.5797 22.4546H11.3239V22.3896C5.61903 21.8018 1.18176 17.293 1.18176 11.8182C1.18176 6.34335 5.61903 1.83462 11.3239 1.24674V1.18182H59.4991Z" fill="#FFF100"/>
<path fill-rule="evenodd" clip-rule="evenodd" d="M58.7041 2.36365H59.9289V2.42135C65.4404 2.9439 69.7273 6.95166 69.7273 11.8182C69.7273 16.6847 65.4404 20.6925 59.9289 21.215V21.2727H58.7041H13.4041L13.3868 21.2727L13.3694 21.2727H12.162V21.215C6.65047 20.6925 2.36365 16.6847 2.36365 11.8182C2.36365 6.95169 6.65047 2.94394 12.162 2.42136V2.36365H58.7041Z" fill="#EB5E40"/>
<path d="M25.272 8.304V9.088H29.608V8.304H25.272ZM25.272 6.272V7.072H29.608V6.272H25.272ZM23.512 4.912H31.448V10.464H23.512V4.912ZM22.728 11.2H32.264V12.752H22.728V11.2ZM26.52 12.048H28.328V18.56L26.52 17.776V12.048ZM25.048 14.88C25.848 17.264 27.48 17.568 29.448 17.568C29.992 17.568 31.992 17.568 32.696 17.536C32.456 17.936 32.232 18.736 32.168 19.232H29.368C26.776 19.232 24.92 18.656 23.896 15.264L25.048 14.88ZM27.832 14.16H31.4V15.664H27.832V14.16ZM23.688 13.232L25.416 13.44C25.08 16.048 24.264 18.112 22.856 19.408C22.568 19.104 21.848 18.528 21.448 18.272C22.776 17.2 23.448 15.424 23.688 13.232ZM17.352 12.528C18.664 12.256 20.6 11.728 22.44 11.216L22.696 12.944C21.016 13.456 19.208 13.984 17.768 14.384L17.352 12.528ZM17.512 7.456H22.6V9.216H17.512V7.456ZM19.24 4.432H21V17.2C21 18.08 20.856 18.576 20.36 18.864C19.88 19.168 19.176 19.232 18.152 19.232C18.104 18.752 17.88 17.968 17.656 17.456C18.232 17.472 18.792 17.472 18.984 17.472C19.176 17.472 19.24 17.408 19.24 17.184V4.432ZM47.288 11.024L49.352 11.6C47.496 16 43.944 18.288 39.096 19.488C38.872 19.008 38.264 18.112 37.88 17.664C42.584 16.768 45.88 14.8 47.288 11.024ZM42.136 8.256L44.12 9.024C42.968 10.512 41.176 12.048 39.672 12.992C39.304 12.576 38.536 11.84 38.056 11.488C39.576 10.736 41.208 9.504 42.136 8.256ZM43.56 11.104C44.984 14.64 48.04 16.848 52.952 17.616C52.52 18.048 51.96 18.912 51.688 19.456C46.488 18.464 43.528 15.936 41.72 11.648L43.56 11.104ZM38.296 6.256H52.488V8.144H38.296V6.256ZM44.376 4.384H46.344V7.488H44.376V4.384ZM46.92 9.264L48.504 8.096C49.912 9.04 51.8 10.464 52.728 11.504L51.016 12.832C50.2 11.808 48.36 10.288 46.92 9.264Z" fill="white"/>
</svg>
